<?xml version="1.0" encoding="UTF-8"?>
<svg width="22px" height="16px" viewBox="0 0 22 16" version="1.1" xmlns="http://www.w3.org/2000/svg" xmlns:xlink="http://www.w3.org/1999/xlink">
    <title>Components/ Icon/ Contact us/ Black Copy</title>
    <g id="Components" stroke="none" stroke-width="1" fill="none" fill-rule="evenodd">
        <g id="Modules/-Property-Dining-Details/-Booking-widget/-Expand" transform="translate(-278.000000, -610.000000)" fill="#000000" fill-rule="nonzero">
            <g id="Group" transform="translate(277.000000, 606.000000)">
                <g id="Group" transform="translate(1.090909, 4.363636)">
                    <path d="M2.1286031,0.0970380861 C0.9585898,0.0970380861 0,1.06236287 0,2.24059215 L0,12.9582928 C0,14.1365167 0.9585898,15.1018335 2.1286031,15.1018335 L19.6895787,15.1018335 C20.859592,15.1018335 21.8181818,14.1365167 21.8181818,12.9582928 L21.8181818,2.24059215 C21.8181818,1.06236287 20.859592,0.0970380861 19.6895787,0.0970380861 L2.1286031,0.0970380861 Z M2.1286031,1.16882182 L19.6895787,1.16882182 C19.8433437,1.16882182 19.9830865,1.20477971 20.1136497,1.26094048 L11.5742794,8.93915407 C11.1709091,9.30189474 10.6646208,9.30194833 10.2605322,8.93915407 L1.70453215,1.26094048 C1.83509534,1.20477971 1.97483814,1.16882182 2.1286031,1.16882182 Z M1.0726031,2.13175388 L7.19233703,7.62457416 L1.18070953,13.4439388 C1.11041242,13.2997321 1.06430155,13.1332861 1.06430155,12.9582928 L1.06430155,2.24059215 C1.06430155,2.20308019 1.06909091,2.16814048 1.07254989,2.13175388 L1.0726031,2.13175388 Z M20.7455787,2.13175388 C20.7490377,2.16814048 20.7538271,2.20308019 20.7538271,2.24059215 L20.7538271,12.9582928 C20.7538271,13.1332861 20.7077162,13.2997321 20.6374191,13.4439388 L14.6423947,7.61618756 L20.7455255,2.13175388 L20.7455787,2.13175388 Z M13.8442217,8.33628325 L19.7145366,14.0300632 C19.7060222,14.0302507 19.6980399,14.0300632 19.6895255,14.0300632 L2.12854989,14.0300632 C2.12003548,14.0300632 2.11205322,14.0302507 2.1035388,14.0300632 L7.99045676,8.34464306 L9.55364967,9.74298182 C10.3321863,10.4419636 11.5025721,10.4429818 12.2809224,9.74298182 L13.8441153,8.33628325 L13.8442217,8.33628325 Z" id="Shape"></path>
                </g>
            </g>
        </g>
    </g>
</svg>