<?xml version="1.0" encoding="UTF-8"?>
<svg width="38px" height="38px" viewBox="0 0 38 38" version="1.1" xmlns="http://www.w3.org/2000/svg" xmlns:xlink="http://www.w3.org/1999/xlink">
    <title>F615EAAE-9AAC-421D-A70A-8E3D05C56586</title>
    <g id="Components" stroke="none" stroke-width="1" fill="none" fill-rule="evenodd">
        <g id="Components/-Icon/-Minibar/-Black" fill="#000000" fill-rule="nonzero">
            <g id="noun_Champagne_3191967" transform="translate(3.000000, 4.000000)">
                <path d="M14.4688737,9.2848086 L2.72939824,7.01353581 C2.55741036,6.97909509 2.37565041,7.01111888 2.22776695,7.10114805 C2.07988349,7.19117721 1.97629984,7.3319611 1.94014331,7.4926843 L0.141110997,15.4919876 C-0.563086506,18.6234468 1.43456243,21.7048311 4.65717712,22.6461344 L3.86075596,26.1876342 L1.99812403,25.8272154 C1.63916451,25.758334 1.28476525,25.9716246 1.20886904,26.3063639 C1.13362432,26.6411033 1.36522166,26.9685919 1.72580984,27.0380775 L4.2401146,27.5245523 C4.24060319,27.5246278 4.24096963,27.5249299 4.24145828,27.525081 C4.24239476,27.525232 4.243372,27.5251565 4.24430848,27.5253831 L6.62876729,27.9867071 C6.6746959,27.9957704 6.72029869,28 6.76557581,28 C7.0750237,28 7.35222383,27.7993981 7.41802221,27.5075586 C7.49326693,27.1728193 7.2616696,26.8453306 6.90108141,26.775845 L5.16691106,26.4403504 L5.96341361,22.898473 C6.19879756,22.92166 6.4332451,22.9341976 6.66590106,22.9341976 C9.7535395,22.9341976 12.53173,20.9275743 13.1867823,18.0158255 L14.9858145,10.0165223 C15.0610593,9.68178288 14.829462,9.35429421 14.4688737,9.2848086 Z M11.8805865,17.7632604 C11.2802576,20.4309032 8.45027529,22.1487081 5.57566726,21.5922191 C4.18217457,21.3221316 2.98542561,20.5656449 2.20561695,19.461126 C1.42580829,18.356607 1.1567515,17.0369848 1.44730673,15.7445527 L2.14897984,12.6249512 L12.8042884,13.6560571 L11.8805865,17.7632604 Z M13.0780276,12.4388507 L2.4227191,11.4078203 L3.11018202,8.35128463 L13.5434617,10.3693882 L13.0780276,12.4388507 Z" id="Shape"></path>
                <path d="M30.0585274,7.49319075 C30.0223742,7.33247151 29.9188001,7.1916911 29.7709304,7.10166416 C29.6230606,7.01163722 29.4422946,6.97840575 29.2693455,7.01405402 L17.5309567,9.28527074 C17.357682,9.31850214 17.2059037,9.4145712 17.1091695,9.55172636 C17.0121096,9.68888151 16.9779106,9.85624704 17.0140638,10.0169663 L18.8132552,18.016072 C19.1764157,19.6317234 20.1965221,21.0195885 21.6853172,21.9240874 C22.7832669,22.5905285 24.0391833,22.9355311 25.3214818,22.9355311 C25.5588796,22.9355311 25.7972139,22.9225406 26.0356702,22.8986744 L26.8320584,26.4403889 L25.0980485,26.7758752 C24.7374937,26.8453591 24.5059178,27.1728397 24.5811556,27.5075707 C24.6469479,27.7994031 24.9241224,28 25.2335416,28 C25.2784888,28 25.3244132,27.9957706 25.3703375,27.9867074 L27.7545755,27.5253948 C27.7555119,27.5251682 27.7564891,27.5252438 27.7574255,27.5250927 C27.757914,27.5249417 27.7582804,27.5246396 27.758769,27.524564 L30.272841,27.0381013 C30.6333958,26.9686174 30.8649717,26.6411368 30.789734,26.3064057 C30.7141705,25.9722789 30.3601298,25.7535557 30.000552,25.827269 L28.1380925,26.1876789 L27.3419486,22.6470217 C28.8066008,22.2210553 30.0569803,21.3464647 30.9089417,20.1392576 C31.8841009,18.7586431 32.2208793,17.1079476 31.8573931,15.4922962 L30.0585274,7.49319075 Z M18.4562831,10.3698236 L28.8885969,8.35176988 L29.5759962,11.4082301 L18.9217555,12.439235 L18.4562831,10.3698236 Z M26.4233399,21.5923775 C25.0296505,21.8612499 23.6072992,21.6117121 22.416198,20.8890797 C21.2254224,20.1658431 20.4098585,19.0559135 20.1193301,17.7635133 L19.1955101,13.6563359 L29.8497508,12.625331 L30.5513182,15.7448553 C31.1512658,18.4124323 29.2993103,21.0359022 26.4233399,21.5923775 Z" id="Shape"></path>
                <path d="M12.0950427,3.18403279 C11.8352161,2.92902152 11.4248801,2.94019472 11.1777278,3.21032261 C10.9312094,3.48045051 10.9426164,3.90634557 11.2027599,4.16201405 L13.9049573,6.81597127 C14.0304346,6.93887618 14.1907666,7 14.3510987,7 C14.5231546,7 14.6945769,6.92967473 14.8222722,6.78968145 C15.0687906,6.51955355 15.0573836,6.09365849 14.7972401,5.83799001 L12.0950427,3.18403279 Z" id="Path"></path>
                <path d="M18.0950427,6.81597127 L20.7972401,4.16201405 C21.0573836,3.90634557 21.0687906,3.48045051 20.8222722,3.21032261 C20.5757537,2.94019472 20.1654177,2.92902152 19.9049573,3.18403279 L17.2027599,5.83799001 C16.9426164,6.09365849 16.9312094,6.51955355 17.1777278,6.78968145 C17.3054231,6.92967473 17.4768454,7 17.6489013,7 C17.8092334,7 17.9695654,6.93887611 18.0950427,6.81597127 Z" id="Path"></path>
                <path d="M16.5,0 C16.2238769,0 16,0.307004788 16,0.686403757 L16,5.31359624 C16,5.69299521 16.2238769,6 16.5,6 C16.7761231,6 17,5.69299521 17,5.31359624 L17,0.686403757 C17,0.307004857 16.776123,0 16.5,0 Z" id="Path"></path>
            </g>
        </g>
    </g>
</svg>