<?xml version="1.0" encoding="UTF-8"?>
<svg width="21px" height="22px" viewBox="0 0 21 22" version="1.1" xmlns="http://www.w3.org/2000/svg" xmlns:xlink="http://www.w3.org/1999/xlink">
    <title>Components/ Icon/ Contact us/ Black Copy 2</title>
    <g id="Components" stroke="none" stroke-width="1" fill="none" fill-rule="evenodd">
        <g id="Modules/-Property-Dining-Details/-Booking-widget/-Expand" transform="translate(-278.000000, -647.000000)" fill="#000000" fill-rule="nonzero">
            <g id="Group" transform="translate(277.000000, 646.000000)">
                <g id="Group" transform="translate(1.090909, 1.090909)">
                    <path d="M12.081697,0.00557575758 C11.8274424,0.0157575758 11.6291515,0.240727273 11.6385939,0.508363636 C11.6482667,0.776 11.8629091,0.985939394 12.1160121,0.974787879 C14.1141212,0.889212121 16.1073939,1.7449697 17.5884727,3.30375758 C19.0695515,4.8630303 19.8760727,6.96242424 19.8012242,9.06424242 C19.7915515,9.33187879 19.9900727,9.55684848 20.2443273,9.5670303 C20.2500848,9.56727273 20.2560727,9.56727273 20.2618303,9.56727273 C20.5082545,9.56727273 20.7125333,9.36193939 20.7217455,9.10060606 C20.8060364,6.73018182 19.9014061,4.36727273 18.2397697,2.61818182 C16.5781333,0.869090909 14.3322182,-0.0836363636 12.081697,0.00557575758 Z" id="Path"></path>
                    <path d="M15.3004121,5.71248485 C16.1175273,6.57260606 16.5951758,7.70593939 16.6815394,8.99006061 C16.6988121,9.24557576 16.9010182,9.44048485 17.1405333,9.44048485 C17.1513576,9.44048485 17.1624121,9.44 17.173697,9.43927273 C17.4274909,9.42036364 17.6186424,9.18836364 17.6006788,8.92121212 C17.4981939,7.4009697 16.9281939,6.05430303 15.9519394,5.02690909 C14.9756848,3.99927273 13.6965818,3.3990303 12.2523515,3.29139394 C11.9990182,3.27490909 11.7781576,3.47369697 11.7604242,3.74084848 C11.7424606,4.00824242 11.9336121,4.24 12.1874061,4.25890909 C13.4066303,4.34957576 14.4830667,4.85260606 15.3004121,5.71248485 Z" id="Path"></path>
                    <path d="M17.3487273,13.5202424 C16.8425212,12.9873939 16.1695758,12.6940606 15.4537939,12.6940606 C14.7380121,12.6940606 14.0650667,12.9873939 13.5588606,13.5202424 L12.735297,14.3869091 C12.3536848,14.7886061 11.7491394,14.8392727 11.2979758,14.5071515 C10.4610545,13.8909091 9.66512727,13.1871515 8.93207273,12.4155152 L8.93207273,12.4155152 C8.19832727,11.6429091 7.52975758,10.8050909 6.94524848,9.92533333 C6.62973333,9.45042424 6.67763636,8.81406061 7.05947879,8.41236364 L7.88281212,7.54545455 C8.92769697,6.44581818 8.92769697,4.65624242 7.88281212,3.55660606 L6.02196364,1.59781818 C5.51598788,1.06521212 4.84304242,0.771636364 4.1270303,0.771636364 C3.41124848,0.771636364 2.73830303,1.06521212 2.23232727,1.59781818 L1.38389091,2.49066667 C0.334169697,3.59612121 -0.16489697,5.14763636 0.0488242424,6.64121212 C0.343151515,8.69915152 1.07067879,10.8021818 2.15172121,12.7212121 C2.92761212,14.1061818 3.88267879,15.3992727 4.99020606,16.5650909 C6.09750303,17.7306667 7.32593939,18.7357576 8.6409697,19.5522424 C10.4652,20.6909091 12.4628485,21.4564848 14.4176606,21.766303 C14.6343758,21.8007273 14.8522424,21.817697 15.0698788,21.817697 C16.2771273,21.817697 17.4714788,21.2974545 18.3609091,20.3607273 L19.2091152,19.4678788 C19.7153212,18.9352727 19.9939879,18.2269091 19.9939879,17.4732121 C19.9939879,16.72 19.7153212,16.0116364 19.2091152,15.4785455 L17.3487273,13.5202424 Z M18.5580485,18.7825455 L17.7096121,19.6753939 C16.8657818,20.5641212 15.6866303,20.9871515 14.5551515,20.8077576 C12.7164121,20.5163636 10.8339152,19.793697 9.10986667,18.7178182 C7.86093333,17.942303 6.69398788,16.9873939 5.64150303,15.8797576 C4.58878788,14.7716364 3.68162424,13.5432727 2.94465455,12.2278788 C1.9230303,10.4145455 1.23672727,8.43272727 0.959672727,6.4969697 C0.789478788,5.30642424 1.19158788,4.0649697 2.03541818,3.17648485 L2.88362424,2.28363636 C3.56946667,1.56193939 4.68482424,1.56193939 5.37043636,2.28363636 L7.23128485,4.24242424 C7.91689697,4.96412121 7.91689697,6.13842424 7.23128485,6.86012121 L6.40795152,7.7270303 C5.70967273,8.46181818 5.61824242,9.62060606 6.19031515,10.4814545 C6.80568485,11.4075152 7.5090303,12.2892121 8.28054545,13.1015758 L8.60642424,12.7587879 L8.28077576,13.1015758 C9.0516,13.9132121 9.88921212,14.6533333 10.7701212,15.3020606 C11.5883879,15.9044848 12.6890061,15.808 13.3868242,15.0729697 L14.2103879,14.206303 C14.5424848,13.8567273 14.9842061,13.6642424 15.4537939,13.6642424 C15.9233818,13.6642424 16.365103,13.8567273 16.6972,14.206303 L18.5580485,16.1648485 C18.8901455,16.5144242 19.0730061,16.9793939 19.0730061,17.473697 C19.0730061,17.968 18.8901455,18.4327273 18.5580485,18.7825455 Z" id="Shape"></path>
                </g>
            </g>
        </g>
    </g>
</svg>