<?xml version="1.0" encoding="UTF-8"?>
<svg width="38px" height="38px" viewBox="0 0 38 38" version="1.1" xmlns="http://www.w3.org/2000/svg" xmlns:xlink="http://www.w3.org/1999/xlink">
    <title>Component/ Icon/ Audio sound system</title>
    <g id="Component/-Icon/-Audio-sound-system" stroke="none" stroke-width="1" fill="none" fill-rule="evenodd">
        <g id="noun_sound-system_3357426" transform="translate(3.000000, 6.000000)" fill="#000000" fill-rule="nonzero">
            <g id="Group" transform="translate(0.003964, 0.000000)">
                <path d="M8.07626425,19.6776085 L0.523446253,19.6776085 C0.255290855,19.6776085 0.0379079532,19.4602256 0.0379079532,19.1920702 L0.0379079532,0.514167077 C0.0379079532,0.246011678 0.255290855,0.0286287768 0.523446253,0.0286287768 L8.07626425,0.0286287768 C8.34441965,0.0286287768 8.56180255,0.246011678 8.56180255,0.514167077 L8.56180255,19.1920702 C8.56180255,19.4602256 8.34441965,19.6776085 8.07626425,19.6776085 L8.07626425,19.6776085 Z M1.00934421,18.7065319 L7.59108561,18.7065319 L7.59108561,0.99984924 L1.00934421,0.99984924 L1.00934421,18.7065319 Z" id="Shape"></path>
                <path d="M4.30007105,6.41018453 C3.24234698,6.41018453 2.3848922,5.55272976 2.3848922,4.49500568 C2.3848922,3.43728161 3.24234698,2.57982683 4.30007105,2.57982683 C5.35779512,2.57982683 6.2152499,3.43728161 6.2152499,4.49500568 C6.21402111,5.55222036 5.35728572,6.40895574 4.30007105,6.41018453 L4.30007105,6.41018453 Z M4.30007105,3.55090343 C3.77865777,3.55090343 3.3559688,3.97359241 3.3559688,4.49500568 C3.3559688,5.01641896 3.77865777,5.43910793 4.30007105,5.43910793 C4.82148432,5.43910793 5.2441733,5.01641896 5.2441733,4.49500568 C5.2435787,3.9738389 4.82123783,3.55149803 4.30007105,3.55090343 Z" id="Shape"></path>
                <path d="M4.30007105,11.4540283 C3.24234698,11.4540283 2.3848922,10.5965735 2.3848922,9.53884948 C2.3848922,8.4811254 3.24234698,7.62367063 4.30007105,7.62367063 C5.35779512,7.62367063 6.2152499,8.4811254 6.2152499,9.53884948 C6.21402111,10.5960641 5.35728572,11.4527995 4.30007105,11.4540283 L4.30007105,11.4540283 Z M4.30007105,8.59474723 C3.77865777,8.59474723 3.3559688,9.0174362 3.3559688,9.53884948 C3.3559688,10.0602628 3.77865777,10.4829517 4.30007105,10.4829517 C4.82148432,10.4829517 5.2441733,10.0602628 5.2441733,9.53884948 C5.2435787,9.01768269 4.82123783,8.59534183 4.30007105,8.59474723 L4.30007105,8.59474723 Z" id="Shape"></path>
                <path d="M4.30007105,16.4978721 C3.24234698,16.4978721 2.3848922,15.6404173 2.3848922,14.5826933 C2.3848922,13.5249692 3.24234698,12.6675144 4.30007105,12.6675144 C5.35779512,12.6675144 6.2152499,13.5249692 6.2152499,14.5826933 C6.21402111,15.6399079 5.35728572,16.4966433 4.30007105,16.4978721 L4.30007105,16.4978721 Z M4.30007105,13.638591 C3.77865777,13.638591 3.3559688,14.06128 3.3559688,14.5826933 C3.3559688,15.1041065 3.77865777,15.5267955 4.30007105,15.5267955 C4.82148432,15.5267955 5.2441733,15.1041065 5.2441733,14.5826933 C5.2435787,14.0615265 4.82123783,13.6391856 4.30007105,13.638591 L4.30007105,13.638591 Z" id="Shape"></path>
                <path d="M4.30007105,27.6599301 C4.03191565,27.6599301 3.81453275,27.4425472 3.81453275,27.1743918 L3.81453275,19.1920702 C3.81453275,18.9239148 4.03191565,18.7065319 4.30007105,18.7065319 C4.56822645,18.7065319 4.78560935,18.9239148 4.78560935,19.1920702 L4.78560935,27.1743918 C4.78560935,27.4425472 4.56822645,27.6599301 4.30007105,27.6599301 L4.30007105,27.6599301 Z" id="Path"></path>
                <path d="M6.43334651,27.6599301 L1.97358731,27.6599301 C1.70543191,27.6599301 1.48804901,27.4425472 1.48804901,27.1743918 C1.48804901,26.9062364 1.70543191,26.6888535 1.97358731,26.6888535 L6.43334651,26.6888535 C6.70150191,26.6888535 6.91888481,26.9062364 6.91888481,27.1743918 C6.91888481,27.4425472 6.70150191,27.6599301 6.43334651,27.6599301 L6.43334651,27.6599301 Z" id="Path"></path>
                <path d="M31.7684473,19.6776085 L24.2156293,19.6776085 C23.9474739,19.6776085 23.730091,19.4602256 23.730091,19.1920702 L23.730091,0.514167077 C23.730091,0.246011678 23.9474739,0.0286287768 24.2156293,0.0286287768 L31.7684473,0.0286287768 C32.0366027,0.0286287768 32.2539856,0.246011678 32.2539856,0.514167077 L32.2539856,19.1920702 C32.2539856,19.4602256 32.0366027,19.6776085 31.7684473,19.6776085 L31.7684473,19.6776085 Z M24.7013114,18.7065319 L31.2830528,18.7065319 L31.2830528,0.99984924 L24.7013114,0.99984924 L24.7013114,18.7065319 Z" id="Shape"></path>
                <path d="M27.9921102,6.41018453 C26.9343861,6.41018453 26.0769314,5.55272976 26.0769314,4.49500568 C26.0769314,3.43728161 26.9343861,2.57982683 27.9921102,2.57982683 C29.0498343,2.57982683 29.9072891,3.43728161 29.9072891,4.49500568 C29.9060603,5.55222036 29.0493249,6.40895574 27.9921102,6.41018453 Z M27.9921102,3.55090343 C27.4706969,3.55090343 27.048008,3.97359241 27.048008,4.49500568 C27.048008,5.01641896 27.4706969,5.43910793 27.9921102,5.43910793 C28.5135235,5.43910793 28.9362125,5.01641896 28.9362125,4.49500568 C28.9356179,3.9738389 28.513277,3.55149803 27.9921102,3.55090343 Z" id="Shape"></path>
                <path d="M27.9921102,11.4540283 C26.9343861,11.4540283 26.0769314,10.5965735 26.0769314,9.53884948 C26.0769314,8.4811254 26.9343861,7.62367063 27.9921102,7.62367063 C29.0498343,7.62367063 29.9072891,8.4811254 29.9072891,9.53884948 C29.9060603,10.5960641 29.0493249,11.4527995 27.9921102,11.4540283 Z M27.9921102,8.59474723 C27.4706969,8.59474723 27.048008,9.0174362 27.048008,9.53884948 C27.048008,10.0602628 27.4706969,10.4829517 27.9921102,10.4829517 C28.5135235,10.4829517 28.9362125,10.0602628 28.9362125,9.53884948 C28.9356179,9.01768269 28.513277,8.59534183 27.9921102,8.59474723 L27.9921102,8.59474723 Z" id="Shape"></path>
                <path d="M27.9921102,16.4978721 C26.9343861,16.4978721 26.0769314,15.6404173 26.0769314,14.5826933 C26.0769314,13.5249692 26.9343861,12.6675144 27.9921102,12.6675144 C29.0498343,12.6675144 29.9072891,13.5249692 29.9072891,14.5826933 C29.9060603,15.6399079 29.0493249,16.4966433 27.9921102,16.4978721 Z M27.9921102,13.638591 C27.4706969,13.638591 27.048008,14.06128 27.048008,14.5826933 C27.048008,15.1041065 27.4706969,15.5267955 27.9921102,15.5267955 C28.5135235,15.5267955 28.9362125,15.1041065 28.9362125,14.5826933 C28.9356179,14.0615265 28.513277,13.6391856 27.9921102,13.638591 L27.9921102,13.638591 Z" id="Shape"></path>
                <path d="M27.9921102,27.6599301 C27.7239548,27.6599301 27.5065719,27.4425472 27.5065719,27.1743918 L27.5065719,19.1920702 C27.5065719,18.9239148 27.7239548,18.7065319 27.9921102,18.7065319 C28.2602656,18.7065319 28.4776485,18.9239148 28.4776485,19.1920702 L28.4776485,27.1743918 C28.4776485,27.4425472 28.2602656,27.6599301 27.9921102,27.6599301 L27.9921102,27.6599301 Z" id="Path"></path>
                <path d="M30.1254576,27.6599301 L25.6656984,27.6599301 C25.397543,27.6599301 25.1801601,27.4425472 25.1801601,27.1743918 C25.1801601,26.9062364 25.397543,26.6888535 25.6656984,26.6888535 L30.1254576,26.6888535 C30.393613,26.6888535 30.6109959,26.9062364 30.6109959,27.1743918 C30.6109959,27.4425472 30.393613,27.6599301 30.1254576,27.6599301 L30.1254576,27.6599301 Z" id="Path"></path>
                <path d="M21.9225937,27.6599301 L10.2696745,27.6599301 C10.0015191,27.6599301 9.78413623,27.4425472 9.78413623,27.1743918 L9.78413623,10.3423974 C9.78413623,10.074242 10.0015191,9.85685908 10.2696745,9.85685908 L21.9225937,9.85685908 C22.1907491,9.85685908 22.408132,10.074242 22.408132,10.3423974 L22.408132,27.1743918 C22.408132,27.4425472 22.1907491,27.6599301 21.9225937,27.6599301 L21.9225937,27.6599301 Z M10.7552128,26.6888535 L21.4370554,26.6888535 L21.4370554,10.8279357 L10.7552128,10.8279357 L10.7552128,26.6888535 Z" id="Shape"></path>
                <path d="M16.0961341,19.7474541 C14.5711275,19.7474541 13.1962842,18.8288084 12.6126961,17.4198832 C12.0291081,16.010958 12.351704,14.3892195 13.4300568,13.3108872 C14.5084096,12.232555 16.1301543,11.90999 17.5390684,12.4936049 C18.9479825,13.0772199 19.8665728,14.4520807 19.8665728,15.9770873 C19.8642339,18.0584619 18.1775087,19.7451549 16.0961341,19.7474541 Z M16.0961341,13.1777253 C14.5500891,13.1777253 13.2967721,14.4310423 13.2967721,15.9770873 C13.2967721,17.5231323 14.5500891,18.7764494 16.0961341,18.7764494 C17.6421791,18.7764494 18.8954962,17.5231323 18.8954962,15.9770873 C18.8936727,14.4318216 17.6414,13.1796132 16.0961341,13.1778691 L16.0961341,13.1777253 Z" id="Shape"></path>
                <path d="M16.0961341,17.829326 C15.0731709,17.829326 14.2438954,17.0000505 14.2438954,15.9770873 C14.2438954,14.9541241 15.0731709,14.1248486 16.0961341,14.1248486 C17.1190973,14.1248486 17.9483728,14.9541241 17.9483728,15.9770873 C17.9471837,16.9995576 17.1186044,17.8281369 16.0961341,17.829326 Z M16.0961341,15.0959252 C15.6094817,15.0959252 15.214972,15.4904349 15.214972,15.9770873 C15.214972,16.4637397 15.6094817,16.8582494 16.0961341,16.8582494 C16.5827865,16.8582494 16.9772962,16.4637397 16.9772962,15.9770873 C16.9767413,15.490665 16.5825565,15.0964802 16.0961341,15.0959252 L16.0961341,15.0959252 Z" id="Shape"></path>
                <path d="M21.9225937,23.6688053 L10.2696745,23.6688053 C10.0015191,23.6688053 9.78413623,23.4514224 9.78413623,23.183267 L9.78413623,21.1321374 C9.78413623,20.863982 10.0015191,20.6465991 10.2696745,20.6465991 L21.9225937,20.6465991 C22.1907491,20.6465991 22.408132,20.863982 22.408132,21.1321374 L22.408132,23.1835547 C22.4079732,23.4515977 22.1906368,23.6688053 21.9225937,23.6688053 L21.9225937,23.6688053 Z M10.7552128,22.6977287 L21.4370554,22.6977287 L21.4370554,21.6176757 L10.7552128,21.6176757 L10.7552128,22.6977287 Z" id="Shape"></path>
                <path d="M13.1469385,23.6688053 C12.8787831,23.6688053 12.6614002,23.4514224 12.6614002,23.183267 L12.6614002,21.1321374 C12.6614002,20.863982 12.8787831,20.6465991 13.1469385,20.6465991 C13.4150939,20.6465991 13.6324768,20.863982 13.6324768,21.1321374 L13.6324768,23.1835547 C13.632318,23.4515977 13.4149816,23.6688053 13.1469385,23.6688053 L13.1469385,23.6688053 Z" id="Path"></path>
                <path d="M18.6856717,23.6688053 C18.4175163,23.6688053 18.2001334,23.4514224 18.2001334,23.183267 L18.2001334,21.1321374 C18.2001334,20.863982 18.4175163,20.6465991 18.6856717,20.6465991 C18.9538271,20.6465991 19.17121,20.863982 19.17121,21.1321374 L19.17121,23.1835547 C19.1710512,23.4515977 18.9537148,23.6688053 18.6856717,23.6688053 L18.6856717,23.6688053 Z" id="Path"></path>
            </g>
        </g>
    </g>
</svg>