<?xml version="1.0" encoding="UTF-8"?>
<svg width="16px" height="20px" viewBox="0 0 16 20" version="1.1" xmlns="http://www.w3.org/2000/svg" xmlns:xlink="http://www.w3.org/1999/xlink">
    <title>Components/ Icon/ Location</title>
    <g id="Components" stroke="none" stroke-width="1" fill="none" fill-rule="evenodd">
        <g id="Modules/-Property-Dining-Details/-Booking-widget/-Expand" transform="translate(-281.000000, -352.000000)" fill="#000000" fill-rule="nonzero">
            <g id="Group" transform="translate(277.000000, 350.000000)">
                <g id="noun_location-pin_1087427" transform="translate(4.363636, 2.181818)">
                    <path d="M7.64615327,0 C3.45948418,0 0.0196557234,3.40040127 0,7.58711711 C0.0196557234,9.15959255 0.491623451,10.6928329 1.41544245,11.9901252 C1.43509818,12.0294371 1.45444688,12.0686721 1.49375832,12.107984 L6.8795032,19.2628241 L6.89908227,19.2824033 C7.0956395,19.5182747 7.37097314,19.6363636 7.64615327,19.6363636 C7.9213334,19.6363636 8.19666703,19.4986187 8.39322427,19.2824033 L8.41280334,19.2628241 L13.7785855,12.107984 C13.8375526,12.0490162 13.8770944,12.0096276 13.9164059,11.9310038 C14.8009133,10.6533676 15.2727273,9.1399366 15.2727273,7.58711711 C15.2727273,3.42005721 11.8524781,0 7.64615327,0 Z M7.64615327,1.17935658 C11.2038392,1.17935658 14.0933841,4.06862667 14.0933841,7.6066964 C14.0933841,8.92364457 13.7001929,10.1818553 12.9336197,11.2825881 C12.913964,11.302244 12.8940779,11.3216696 12.8940779,11.3413256 L7.64615327,18.3391481 L2.41780769,11.3612885 L2.39822862,11.3413256 C2.39822862,11.3216696 2.37834253,11.3218231 2.35868681,11.3021672 C1.5921136,10.2014344 1.17934341,8.92364457 1.17934341,7.6066964 C1.19899913,4.04897073 4.10812305,1.17935658 7.64615327,1.17935658 Z M7.64615327,3.75420824 C5.60195803,3.75420824 3.93114469,5.36614927 3.93114469,7.35139951 C3.93114469,9.33664974 5.60195803,10.9681697 7.64615327,10.9681697 C9.6903485,10.9681697 11.3611618,9.35622883 11.3611618,7.3709786 C11.3611618,5.38572836 9.6903485,3.75420824 7.64615327,3.75420824 Z M7.64615327,4.93356482 C9.04170963,4.93356482 10.1818184,6.01479539 10.1818184,7.35139951 C10.1818184,8.68800363 9.04170963,9.78881309 7.64615327,9.78881309 C6.2505969,9.78881309 5.11048809,8.70758271 5.11048809,7.3709786 C5.11048809,6.03437448 6.2505969,4.93356482 7.64615327,4.93356482 Z" id="Shape"></path>
                </g>
            </g>
        </g>
    </g>
</svg>