<svg width="551" height="370" viewBox="0 0 551 370" fill="none" xmlns="http://www.w3.org/2000/svg">
<g clip-path="url(#clip0_211_10707)">
<path opacity="0.4" d="M532.48 405C527.743 405 523.005 403.14 519.416 399.562L189.074 69.8375C189.074 69.8375 188.213 68.8357 187.782 68.4064C171.559 48.2279 147.441 36.636 121.599 36.636C74.6535 36.636 36.6089 74.5601 36.6089 121.357V129.514C36.6089 139.675 28.2822 147.832 18.3762 147.832C8.4703 147.832 0 139.532 0 129.514V121.357C0 54.2385 54.698 0 121.743 0C158.351 0 192.807 16.1714 215.921 44.6502L545.688 373.945C552.866 380.958 552.866 392.549 545.688 399.705C541.812 403.14 537.361 405.143 532.624 405.143" fill="#FAF8F3"/>
</g>
<defs>
<clipPath id="clip0_211_10707">
<rect width="551" height="370" fill="white"/>
</clipPath>
</defs>
</svg>
